<svg xmlns="http://www.w3.org/2000/svg" viewBox="0 0 1000 1000">
  <defs>
    <linearGradient id="linear-gradient" x1="92.27" y1="500" x2="907.73" y2="500" gradientUnits="userSpaceOnUse">
      <stop offset="0" stop-color="#4177f0"/>
      <stop offset="1" stop-color="#325be4"/>
    </linearGradient>
  </defs>
  <path d="M907.73,694.98v-389.96c0-25.01-13.34-48.13-35.01-60.63L535.01,49.4c-21.66-12.51-48.35-12.51-70.01,0L127.28,244.39c-21.66,12.51-35.01,35.62-35.01,60.63v389.96c0,25.01,13.34,48.13,35.01,60.63l337.72,194.98c21.66,12.51,48.35,12.51,70.01,0l337.72-194.98c21.66-12.51,35.01-35.62,35.01-60.63Z" style="fill: url(#linear-gradient); stroke: #fff; stroke-miterlimit: 10;"/>
  <path d="M675.03,272.25h-263.85c-11.79,0-21.97,8.24-24.42,19.77l-86.21,405.57c-3.3,15.53,8.54,30.15,24.42,30.15h72.14c11.79,0,21.97-8.24,24.42-19.77l29.19-137.32c2.45-11.53,12.63-19.77,24.42-19.77h139.3c11.79,0,21.97-8.24,24.42-19.77l9.41-44.28c3.3-15.53-8.54-30.15-24.42-30.15h-118.07c-15.88,0-27.72-14.62-24.42-30.15l8.48-39.89c2.45-11.53,12.63-19.77,24.42-19.77h151.27c11.79,0,21.97-8.24,24.42-19.77l9.5-44.68c3.3-15.53-8.54-30.15-24.42-30.15ZM479.79,338.98c0,1.18-.96,2.13-2.13,2.13h-25.01c-1.18,0-2.13.96-2.13,2.13v25.01c0,1.18-.96,2.13-2.13,2.13h-18.58c-1.18,0-2.13-.96-2.13-2.13v-25.01c0-1.18-.96-2.13-2.13-2.13h-25.01c-1.18,0-2.13-.96-2.13-2.13v-18.58c0-1.18.96-2.13,2.13-2.13h25.01c1.18,0,2.13-.96,2.13-2.13v-25.01c0-1.18.96-2.13,2.13-2.13h18.58c1.18,0,2.13.96,2.13,2.13v25.01c0,1.18.96,2.13,2.13,2.13h25.01c1.18,0,2.13.96,2.13,2.13v18.58Z" style="fill: #fff;"/>
</svg>

